<mxfile host="app.diagrams.net" modified="2023-08-07T01:51:52.474Z" agent="Mozilla/5.0 (Windows NT 10.0; Win64; x64) AppleWebKit/537.36 (KHTML, like Gecko) Chrome/115.0.0.0 Safari/537.36" version="21.6.6" etag="vhpZ3k1oLmwCbv0-7t60" type="github">
  <diagram name="第 1 页" id="z3eSV-Bdw5thzZ9dF0Tf">
    <mxGraphModel>
      <root>
        <mxCell id="0" />
        <mxCell id="1" parent="0" />
      </root>
    </mxGraphModel>
  </diagram>
</mxfile>
